<svg width="152" height="56" viewBox="0 0 152 56" fill="none" xmlns="http://www.w3.org/2000/svg">
<g clip-path="url(#clip0_18_552)">
<path d="M31 11.676L20.392 0L0.5 22.16H21.588L31 11.676Z" fill="url(#paint0_linear_18_552)"/>
<path d="M11.104 33.8398L1.69202 44.3198L12.3 55.9998L32.192 33.8398H11.104Z" fill="url(#paint1_linear_18_552)"/>
<path d="M11.104 33.8402L20.856 22.9721L21.588 22.1602H0.5L11.104 33.8402Z" fill="url(#paint2_linear_18_552)"/>
<path d="M11.104 33.8402H32.192L21.588 22.1602L20.856 22.9721L11.104 33.8402Z" fill="url(#paint3_linear_18_552)"/>
</g>
<path d="M47.142 33.5H44.892L48.9886 21.8636H51.5909L55.6932 33.5H53.4432L50.3352 24.25H50.2443L47.142 33.5ZM47.2159 28.9375H53.3523V30.6307H47.2159V28.9375ZM57.1974 33.5V24.7727H59.2543V33.5H57.1974ZM58.2315 23.5341C57.9058 23.5341 57.6255 23.4261 57.3906 23.2102C57.1558 22.9905 57.0384 22.7273 57.0384 22.4205C57.0384 22.1098 57.1558 21.8466 57.3906 21.6307C57.6255 21.411 57.9058 21.3011 58.2315 21.3011C58.5611 21.3011 58.8414 21.411 59.0724 21.6307C59.3073 21.8466 59.4247 22.1098 59.4247 22.4205C59.4247 22.7273 59.3073 22.9905 59.0724 23.2102C58.8414 23.4261 58.5611 23.5341 58.2315 23.5341ZM61.3693 33.5V24.7727H63.3636V26.2273H63.4545C63.6136 25.7235 63.8864 25.3352 64.2727 25.0625C64.6629 24.786 65.108 24.6477 65.608 24.6477C65.7216 24.6477 65.8485 24.6534 65.9886 24.6648C66.1326 24.6723 66.2519 24.6856 66.3466 24.7045V26.5966C66.2595 26.5663 66.1212 26.5398 65.9318 26.517C65.7462 26.4905 65.5663 26.4773 65.392 26.4773C65.017 26.4773 64.6799 26.5587 64.3807 26.7216C64.0852 26.8807 63.8523 27.1023 63.6818 27.3864C63.5114 27.6705 63.4261 27.9981 63.4261 28.3693V33.5H61.3693ZM72.5398 24.7727V26.3636H67.5227V24.7727H72.5398ZM68.7614 22.6818H70.8182V30.875C70.8182 31.1515 70.8598 31.3636 70.9432 31.5114C71.0303 31.6553 71.1439 31.7538 71.2841 31.8068C71.4242 31.8598 71.5795 31.8864 71.75 31.8864C71.8788 31.8864 71.9962 31.8769 72.1023 31.858C72.2121 31.839 72.2955 31.822 72.3523 31.8068L72.6989 33.4148C72.589 33.4527 72.4318 33.4943 72.2273 33.5398C72.0265 33.5852 71.7803 33.6117 71.4886 33.6193C70.9735 33.6345 70.5095 33.5568 70.0966 33.3864C69.6837 33.2121 69.3561 32.9432 69.1136 32.5795C68.875 32.2159 68.7576 31.7614 68.7614 31.2159V22.6818ZM74.2599 33.5V24.7727H76.3168V33.5H74.2599ZM75.294 23.5341C74.9683 23.5341 74.688 23.4261 74.4531 23.2102C74.2183 22.9905 74.1009 22.7273 74.1009 22.4205C74.1009 22.1098 74.2183 21.8466 74.4531 21.6307C74.688 21.411 74.9683 21.3011 75.294 21.3011C75.6236 21.3011 75.9039 21.411 76.1349 21.6307C76.3698 21.8466 76.4872 22.1098 76.4872 22.4205C76.4872 22.7273 76.3698 22.9905 76.1349 23.2102C75.9039 23.4261 75.6236 23.5341 75.294 23.5341ZM78.4318 33.5V24.7727H80.3977V26.2557H80.5C80.6818 25.7557 80.983 25.3655 81.4034 25.0852C81.8239 24.8011 82.3258 24.6591 82.9091 24.6591C83.5 24.6591 83.9981 24.803 84.4034 25.0909C84.8125 25.375 85.1004 25.7633 85.267 26.2557H85.358C85.5511 25.7708 85.8769 25.3845 86.3352 25.0966C86.7973 24.8049 87.3447 24.6591 87.9773 24.6591C88.7803 24.6591 89.4356 24.9129 89.9432 25.4205C90.4508 25.928 90.7045 26.6686 90.7045 27.642V33.5H88.642V27.9602C88.642 27.4186 88.4981 27.0227 88.2102 26.7727C87.9223 26.5189 87.5701 26.392 87.1534 26.392C86.6572 26.392 86.2689 26.5473 85.9886 26.858C85.7121 27.1648 85.5739 27.5644 85.5739 28.0568V33.5H83.5568V27.875C83.5568 27.4242 83.4205 27.0644 83.1477 26.7955C82.8788 26.5265 82.5265 26.392 82.0909 26.392C81.7955 26.392 81.5265 26.4678 81.2841 26.6193C81.0417 26.767 80.8485 26.9773 80.7045 27.25C80.5606 27.5189 80.4886 27.8333 80.4886 28.1932V33.5H78.4318ZM96.6548 33.6705C95.7798 33.6705 95.0241 33.4886 94.3878 33.125C93.7552 32.7576 93.2685 32.2386 92.9276 31.5682C92.5866 30.8939 92.4162 30.1004 92.4162 29.1875C92.4162 28.2898 92.5866 27.5019 92.9276 26.8239C93.2723 26.142 93.7533 25.6117 94.3707 25.233C94.9882 24.8504 95.7135 24.6591 96.5469 24.6591C97.0848 24.6591 97.5923 24.7462 98.0696 24.9205C98.5507 25.0909 98.9749 25.3561 99.3423 25.7159C99.7135 26.0758 100.005 26.5341 100.217 27.0909C100.429 27.6439 100.536 28.303 100.536 29.0682V29.6989H93.3821V28.3125H98.5639C98.5601 27.9186 98.4749 27.5682 98.3082 27.2614C98.1416 26.9508 97.9086 26.7064 97.6094 26.5284C97.3139 26.3504 96.9692 26.2614 96.5753 26.2614C96.1548 26.2614 95.7855 26.3636 95.4673 26.5682C95.1491 26.7689 94.901 27.0341 94.723 27.3636C94.5488 27.6894 94.4598 28.0473 94.456 28.4375V29.6477C94.456 30.1553 94.5488 30.5909 94.7344 30.9545C94.92 31.3144 95.1795 31.5909 95.5128 31.7841C95.8461 31.9735 96.2363 32.0682 96.6832 32.0682C96.9825 32.0682 97.2533 32.0265 97.4957 31.9432C97.7382 31.8561 97.9484 31.7292 98.1264 31.5625C98.3045 31.3958 98.4389 31.1894 98.5298 30.9432L100.45 31.1591C100.329 31.6667 100.098 32.1098 99.7571 32.4886C99.42 32.8636 98.9882 33.1553 98.4616 33.3636C97.9351 33.5682 97.3329 33.6705 96.6548 33.6705Z" fill="#DE3D6D"/>
<path d="M102.253 33.5V31.9773L106.293 28.017C106.679 27.6269 107.001 27.2803 107.259 26.9773C107.516 26.6742 107.709 26.3807 107.838 26.0966C107.967 25.8125 108.031 25.5095 108.031 25.1875C108.031 24.8201 107.948 24.5057 107.781 24.2443C107.615 23.9792 107.385 23.7746 107.094 23.6307C106.802 23.4867 106.471 23.4148 106.099 23.4148C105.717 23.4148 105.382 23.4943 105.094 23.6534C104.806 23.8087 104.582 24.0303 104.423 24.3182C104.268 24.6061 104.19 24.9489 104.19 25.3466H102.185C102.185 24.608 102.353 23.9659 102.69 23.4205C103.027 22.875 103.491 22.4527 104.082 22.1534C104.677 21.8542 105.359 21.7045 106.128 21.7045C106.908 21.7045 107.594 21.8504 108.185 22.142C108.776 22.4337 109.234 22.8333 109.56 23.3409C109.889 23.8485 110.054 24.428 110.054 25.0795C110.054 25.5152 109.971 25.9432 109.804 26.3636C109.637 26.7841 109.344 27.25 108.923 27.7614C108.507 28.2727 107.921 28.892 107.168 29.6193L105.162 31.6591V31.7386H110.23V33.5H102.253ZM122.264 25.7898H120.139C120.079 25.4413 119.967 25.1326 119.804 24.8636C119.641 24.5909 119.438 24.3598 119.196 24.1705C118.954 23.9811 118.677 23.839 118.366 23.7443C118.06 23.6458 117.728 23.5966 117.372 23.5966C116.74 23.5966 116.179 23.7557 115.69 24.0739C115.202 24.3883 114.819 24.8504 114.543 25.4602C114.266 26.0663 114.128 26.8068 114.128 27.6818C114.128 28.572 114.266 29.322 114.543 29.9318C114.823 30.5379 115.205 30.9962 115.69 31.3068C116.179 31.6136 116.738 31.767 117.366 31.767C117.715 31.767 118.041 31.7216 118.344 31.6307C118.651 31.536 118.925 31.3977 119.168 31.2159C119.414 31.0341 119.62 30.8106 119.787 30.5455C119.957 30.2803 120.075 29.9773 120.139 29.6364L122.264 29.6477C122.185 30.2008 122.012 30.7197 121.747 31.2045C121.486 31.6894 121.143 32.1174 120.719 32.4886C120.295 32.8561 119.798 33.1439 119.23 33.3523C118.662 33.5568 118.031 33.6591 117.338 33.6591C116.315 33.6591 115.402 33.4223 114.599 32.9489C113.796 32.4754 113.164 31.7917 112.702 30.8977C112.24 30.0038 112.009 28.9318 112.009 27.6818C112.009 26.428 112.241 25.3561 112.707 24.4659C113.173 23.572 113.808 22.8883 114.611 22.4148C115.414 21.9413 116.323 21.7045 117.338 21.7045C117.986 21.7045 118.588 21.7955 119.145 21.9773C119.702 22.1591 120.198 22.4261 120.634 22.7784C121.069 23.1269 121.427 23.5549 121.707 24.0625C121.991 24.5663 122.177 25.142 122.264 25.7898ZM126.615 33.6761C126.062 33.6761 125.564 33.5777 125.121 33.3807C124.681 33.1799 124.333 32.8845 124.075 32.4943C123.821 32.1042 123.695 31.6231 123.695 31.0511C123.695 30.5587 123.786 30.1515 123.967 29.8295C124.149 29.5076 124.397 29.25 124.712 29.0568C125.026 28.8636 125.38 28.7178 125.774 28.6193C126.172 28.517 126.583 28.4432 127.007 28.3977C127.518 28.3447 127.933 28.2973 128.251 28.2557C128.57 28.2102 128.801 28.142 128.945 28.0511C129.092 27.9564 129.166 27.8106 129.166 27.6136V27.5795C129.166 27.1515 129.039 26.8201 128.786 26.5852C128.532 26.3504 128.166 26.233 127.689 26.233C127.185 26.233 126.786 26.3428 126.49 26.5625C126.198 26.7822 126.001 27.0417 125.899 27.3409L123.979 27.0682C124.13 26.5379 124.38 26.0947 124.729 25.7386C125.077 25.3788 125.503 25.1098 126.007 24.9318C126.511 24.75 127.068 24.6591 127.678 24.6591C128.098 24.6591 128.517 24.7083 128.933 24.8068C129.35 24.9053 129.731 25.0682 130.075 25.2955C130.42 25.5189 130.696 25.8239 130.905 26.2102C131.117 26.5966 131.223 27.0795 131.223 27.6591V33.5H129.246V32.3011H129.178C129.053 32.5436 128.876 32.7708 128.649 32.983C128.426 33.1913 128.143 33.3598 127.803 33.4886C127.465 33.6136 127.07 33.6761 126.615 33.6761ZM127.149 32.1648C127.562 32.1648 127.92 32.0833 128.223 31.9205C128.526 31.7538 128.759 31.5341 128.922 31.2614C129.089 30.9886 129.172 30.6913 129.172 30.3693V29.3409C129.107 29.3939 128.998 29.4432 128.842 29.4886C128.691 29.5341 128.52 29.5739 128.331 29.608C128.142 29.642 127.954 29.6723 127.768 29.6989C127.583 29.7254 127.422 29.7481 127.286 29.767C126.979 29.8087 126.704 29.8769 126.462 29.9716C126.219 30.0663 126.028 30.1989 125.888 30.3693C125.748 30.536 125.678 30.7519 125.678 31.017C125.678 31.3958 125.816 31.6818 126.092 31.875C126.369 32.0682 126.721 32.1648 127.149 32.1648ZM140.189 27.0795L138.314 27.2841C138.261 27.0947 138.168 26.9167 138.036 26.75C137.907 26.5833 137.732 26.4489 137.513 26.3466C137.293 26.2443 137.024 26.1932 136.706 26.1932C136.278 26.1932 135.918 26.286 135.626 26.4716C135.339 26.6572 135.196 26.8977 135.2 27.1932C135.196 27.447 135.289 27.6534 135.479 27.8125C135.672 27.9716 135.99 28.1023 136.433 28.2045L137.922 28.5227C138.748 28.7008 139.361 28.983 139.763 29.3693C140.168 29.7557 140.373 30.2614 140.376 30.8864C140.373 31.4356 140.212 31.9205 139.893 32.3409C139.579 32.7576 139.142 33.0833 138.581 33.3182C138.02 33.553 137.376 33.6705 136.649 33.6705C135.581 33.6705 134.721 33.447 134.07 33C133.418 32.5492 133.03 31.9223 132.905 31.1193L134.911 30.9261C135.001 31.3201 135.195 31.6174 135.49 31.8182C135.786 32.0189 136.17 32.1193 136.643 32.1193C137.132 32.1193 137.524 32.0189 137.82 31.8182C138.119 31.6174 138.268 31.3693 138.268 31.0739C138.268 30.8239 138.172 30.6174 137.979 30.4545C137.789 30.2917 137.494 30.1667 137.092 30.0795L135.604 29.767C134.767 29.5928 134.147 29.2992 133.746 28.8864C133.344 28.4697 133.145 27.9432 133.149 27.3068C133.145 26.7689 133.291 26.303 133.587 25.9091C133.886 25.5114 134.301 25.2045 134.831 24.9886C135.365 24.7689 135.981 24.6591 136.678 24.6591C137.7 24.6591 138.505 24.8769 139.092 25.3125C139.683 25.7481 140.049 26.3371 140.189 27.0795ZM144.129 28.3864V33.5H142.072V21.8636H144.084V26.2557H144.186C144.391 25.7633 144.707 25.375 145.135 25.0909C145.567 24.803 146.116 24.6591 146.783 24.6591C147.389 24.6591 147.917 24.786 148.368 25.0398C148.819 25.2936 149.167 25.6648 149.413 26.1534C149.663 26.642 149.788 27.2386 149.788 27.9432V33.5H147.732V28.2614C147.732 27.6742 147.58 27.2178 147.277 26.892C146.978 26.5625 146.557 26.3977 146.016 26.3977C145.652 26.3977 145.326 26.4773 145.038 26.6364C144.754 26.7917 144.531 27.017 144.368 27.3125C144.209 27.608 144.129 27.9659 144.129 28.3864Z" fill="#F5844C"/>
<defs>
<linearGradient id="paint0_linear_18_552" x1="26.044" y1="6.356" x2="4.41999" y2="26.572" gradientUnits="userSpaceOnUse">
<stop stop-color="#FFE770"/>
<stop offset="1" stop-color="#FFAA4F"/>
</linearGradient>
<linearGradient id="paint1_linear_18_552" x1="6.47602" y1="49.7398" x2="28.268" y2="29.6358" gradientUnits="userSpaceOnUse">
<stop stop-color="#F55684"/>
<stop offset="1" stop-color="#CF2D5D"/>
</linearGradient>
<linearGradient id="paint2_linear_18_552" x1="5.804" y1="27.9962" x2="17.748" y2="17.4642" gradientUnits="userSpaceOnUse">
<stop stop-color="#F0764A"/>
<stop offset="1" stop-color="#FFAA4F"/>
</linearGradient>
<linearGradient id="paint3_linear_18_552" x1="26.88" y1="28.0082" x2="15.504" y2="38.3482" gradientUnits="userSpaceOnUse">
<stop stop-color="#911C4B"/>
<stop offset="1" stop-color="#CF2D5D"/>
</linearGradient>
<clipPath id="clip0_18_552">
<rect width="32" height="56" fill="white" transform="translate(0.5)"/>
</clipPath>
</defs>
</svg>
